Coordinates
version=1
nRows=11
nColumns=36
inDegrees=yes

Units are S.I. units (second, meters, Newtons, ...)
If the header above contains a line with 'inDegrees', this indicates whether rotational values are in degrees (yes) or radians (no).

endheader
time	pelvis_tilt	pelvis_list	pelvis_rotation	pelvis_tx	pelvis_ty	pelvis_tz	hip_flexion_r	hip_adduction_r	hip_rotation_r	knee_angle_r	knee_angle_r_beta	ankle_angle_r	subtalar_angle_r	mtp_angle_r	hip_flexion_l	hip_adduction_l	hip_rotation_l	knee_angle_l	knee_angle_l_beta	ankle_angle_l	subtalar_angle_l	mtp_angle_l	lumbar_extension	lumbar_bending	lumbar_rotation	arm_flex_r	arm_add_r	arm_rot_r	elbow_flex_r	pro_sup_r	arm_flex_l	arm_add_l	arm_rot_l	elbow_flex_l	pro_sup_l
      4.88333330	    -26.21576700	      3.78036704	      3.68522208	     -0.05619981	      0.61094829	     -0.04190115	     85.82260327	    -21.22107692	     -3.74127770	    100.62614681	      1.75625758	     39.96963221	     -6.74101167	     -7.49999987	     86.61971243	    -21.61628911	     -6.15939928	     96.34123461	      1.68147175	     31.97607838	      5.91971977	     -7.49999987	    -28.93484256	     -1.81529422	     -3.96534043	     82.12238611	     15.55188784	     62.52498685	    127.56495986	     87.05222290	    101.24170093	     18.11498297	     72.68840449	    124.63365288	     67.16260976
      4.90000000	    -26.90646266	      3.83231341	      3.47811570	     -0.05922236	      0.59527668	     -0.04216118	     88.18301363	    -21.31890899	     -2.93620430	    103.12243948	      1.79982610	     40.90003207	     -6.39541137	     -7.49999987	     88.90020883	    -22.36561938	     -5.73994055	     98.81222985	      1.72459875	     32.90073990	      6.16524315	     -7.49999987	    -28.68344752	     -1.90715496	     -3.53167133	     83.22639773	     15.35158921	     63.43336696	    127.90031081	     87.31714140	    101.44040624	     18.46872304	     72.45614677	    124.74901905	     67.71810731
      4.91666670	    -27.62763905	      3.86255924	      3.34479569	     -0.06134464	      0.58385130	     -0.04514330	     90.62097254	    -21.47348978	     -2.09786659	    105.46238920	      1.84066593	     41.69960587	     -5.92111232	     -7.49999987	     91.28533553	    -22.74310495	     -5.30547894	    100.98544204	      1.76252846	     33.78306092	      6.38603348	     -7.49999987	    -28.59283042	     -1.82511186	     -3.18637710	     84.77976858	     15.15085473	     63.41167080	    127.72455923	     84.66184306	    102.07264678	     18.93441489	     71.72824064	    124.50134095	     67.17637285
      4.93333330	    -28.14557009	      3.77112727	      3.35839740	     -0.06933859	      0.56567341	     -0.04273023	     93.32140476	    -21.57762005	     -1.31724223	    108.02116135	      1.88532493	     42.35553524	     -5.65782273	     -7.49999987	     94.08044495	    -23.08097051	     -4.30621499	    103.52525934	      1.80685663	     34.78248430	      6.89207890	     -7.49999987	    -28.60267425	     -1.75586778	     -2.93126310	     87.16314291	     14.90421404	     64.76439320	    127.74515155	     88.15383983	    103.28739551	     19.04253498	     71.62955518	    124.53937462	     73.16004407
      4.95000000	    -28.65054801	      3.75780451	      3.13945013	     -0.06592248	      0.55215828	     -0.04742208	     95.87344314	    -21.65651533	     -0.35878695	    110.53197166	      1.92914683	     42.79273162	     -5.43310083	     -7.49999987	     96.64296643	    -23.32907945	     -3.31774734	    106.00362775	      1.85011232	     35.80975156	      7.26818677	     -7.49999987	    -28.57075081	     -1.56042079	     -2.89928025	     89.05577133	     14.64503968	     64.67049924	    127.48572581	     88.16004908	    104.59403041	     19.03525268	     71.50716484	    124.33829576	     73.15684237
      4.96666670	    -29.07492155	      3.74111292	      2.88485045	     -0.06947953	      0.53787123	     -0.04924582	     98.38685785	    -21.69582016	      0.60537686	    112.83957114	      1.96942204	     43.03287944	     -5.35022695	     -7.49999987	     99.05976581	    -23.49113464	     -2.28851078	    108.32506043	      1.89062897	     37.01205097	      7.64781804	     -7.49999987	    -28.51939820	     -1.40170119	     -2.91419363	     90.90463092	     14.23268797	     64.65808109	    127.23626315	     88.15763232	    105.86400185	     18.67166689	     71.32310327	    123.99793683	     73.13966981
      4.98333330	    -29.80825904	      3.70452680	      2.47800522	     -0.06555923	      0.52353698	     -0.05236093	    101.02645666	    -21.69892298	      1.51057526	    114.86046739	      2.00469334	     43.31078250	     -4.73634148	     -7.49999987	    101.63205387	    -23.88854635	     -1.14939056	    110.98416388	      1.93703908	     38.05091960	      8.33614836	     -7.49999987	    -27.96333217	     -1.17924798	     -2.72495571	     92.10214088	     13.98713693	     65.97440061	    127.19390835	     88.17870019	    106.54015676	     18.59629773	     71.69482802	    123.86482411	     73.04898741
      5.00000000	    -30.08868701	      3.79105996	      2.08116726	     -0.07146628	      0.50934755	     -0.05338650	    103.39309432	    -21.64867839	      2.54876362	    116.75655438	      2.03778630	     43.27547392	     -4.42283630	     -7.49999987	    103.85026750	    -24.04989822	     -0.10448237	    113.40753916	      1.97933495	     38.90397380	      8.43452806	     -7.49999987	    -28.16813814	     -1.11589974	     -2.70160065	     93.19585262	     13.80677481	     66.18164357	    127.14266906	     88.18000762	    107.66588672	     18.21661374	     71.69167954	    123.65365910	     73.02013473
      5.01666670	    -30.42316380	      3.83627526	      1.53455379	     -0.07799457	      0.48924058	     -0.05645158	    106.38199241	    -21.51632455	      3.69496241	    119.07337096	      2.07822237	     43.09066130	     -4.21251226	     -7.49999987	    106.98392756	    -24.14233852	      1.43157630	    116.35869144	      2.03084228	     39.64668208	      8.59803408	     -7.49999987	    -28.28829088	     -1.06001581	     -2.57551761	     94.63821484	     13.87246949	     66.08397770	    127.02177179	     88.14339639	    109.42690496	     17.86746678	     71.21846670	    123.29781207	     72.93960885
      5.03333330	    -30.98168342	      3.62209598	      0.79606407	     -0.07419279	      0.47272136	     -0.05578449	    109.20524190	    -21.13995180	      4.45893406	    121.38464401	      2.11856170	     43.23820211	     -3.78786353	     -7.49999987	    110.29995750	    -24.73211490	      3.56481085	    119.26724944	      2.08160619	     40.25128569	      9.40658204	     -7.49999987	    -27.81307459	     -0.89131893	     -1.96072760	     94.76880192	     14.15666718	     66.13497956	    127.09528890	     88.02487141	    109.85781403	     17.71355100	     71.03444204	    123.42293583	     72.70642601
      5.05000000	    -31.47203114	      3.76227954	      0.10981079	     -0.07262232	      0.45450129	     -0.05495812	    111.98797135	    -20.74246476	      5.51702571	    123.81790593	      2.16103013	     43.62707159	     -3.25088288	     -7.49999987	    113.35840385	    -25.35614000	      5.59655331	    122.25851826	      2.13381368	     40.89145217	      9.74850171	     -7.49999987	    -27.40848024	     -1.14640218	     -1.44644985	     95.39895519	     14.43971996	     65.87747871	    126.83280647	     87.97388233	    110.48038863	     17.40411910	     70.50448207	    123.45782079	     72.59999569
